<svg width="48" height="48" viewBox="0 0 48 48" fill="none" xmlns="http://www.w3.org/2000/svg">
<path fill-rule="evenodd" clip-rule="evenodd" d="M22.2037 2.96537C22.9612 1.51349 25.0388 1.5135 25.7963 2.96538L46.7675 43.16C47.4713 44.509 46.4926 46.1234 44.9711 46.1234H3.02886C1.50738 46.1234 0.528741 44.509 1.23253 43.16L22.2037 2.96537Z" fill="#FFBC77"/>
<path fill-rule="evenodd" clip-rule="evenodd" d="M22.3118 31.9405L21.9741 19.7837H26.0264L25.6646 31.9405H22.3118ZM26.0264 35.9927C26.0264 37.1117 25.1193 38.0188 24.0003 38.0188C22.8813 38.0188 21.9741 37.1117 21.9741 35.9927C21.9741 34.8737 22.8813 33.9666 24.0003 33.9666C25.1193 33.9666 26.0264 34.8737 26.0264 35.9927Z" fill="#142B3C"/>
</svg>
